<?xml version="1.0" encoding="utf-8"?>
<!-- Generator: Adobe Illustrator 28.3.0, SVG Export Plug-In . SVG Version: 6.00 Build 0)  -->
<svg version="1.1" id="Vrstva_1" xmlns="http://www.w3.org/2000/svg" xmlns:xlink="http://www.w3.org/1999/xlink" x="0px" y="0px"
	 viewBox="0 0 566.93 224.07" style="enable-background:new 0 0 566.93 224.07;" xml:space="preserve">
<style type="text/css">
	.st0{fill:#2D2E83;}
	.st1{fill:#2FAC66;}
</style>
<g>
	<g>
		<path class="st0" d="M486.6,86.67c-17.81,0-29.95,9.8-29.95,30.36v38.28h16.43v-38.28c0-11.04,5.52-15.04,13.52-15.04
			c0.26,0,13.21,0.04,13.46,0.05V86.72C499.8,86.72,486.85,86.67,486.6,86.67z"/>
		<path class="st0" d="M416.83,64.74h-16.42v60.21c0,20.56,12.14,30.36,29.95,30.36c0.26,0,13.2-0.05,13.46-0.05v-15.32
			c-0.25,0.01-13.2,0.05-13.46,0.05c-8,0-13.52-4-13.52-15.04l0-21.15h26.98V88.88h-26.98V64.74z"/>
		<path class="st0" d="M262.59,86.67c-10.15,0-18.41,4.2-23.15,12.05c-4.88-7.85-13.13-12.05-23.15-12.05
			c-15.84,0-28.02,9.48-28.02,30.46v38.18h16.11v-38.18c0-10.97,5.69-15.43,13.54-15.43c7.72,0,13.54,4.6,13.54,15.43v38.18h16.11
			v-38.18c0-10.83,5.69-15.43,13.4-15.43c7.85,0,13.54,4.47,13.54,15.43v38.18h16.11v-38.18C290.62,96.14,278.43,86.67,262.59,86.67
			z"/>
		<rect x="304.83" y="88.43" class="st0" width="16.11" height="66.88"/>
		<path class="st0" d="M363.45,114.96c-7.18-0.95-13.26-1.76-13.26-6.9c0-3.93,3.52-7.31,10.56-7.31c6.36,0,10.16,2.84,10.56,6.9
			h15.98c-0.41-11.78-10.42-20.98-26.81-20.98c-16.11,0-26.53,8.93-26.53,22.61c0,16.38,15.16,18.14,25.45,19.49
			c7.18,0.95,13.13,1.62,13.13,6.77c0,4.06-3.52,7.45-11.78,7.45c-7.85,0-11.78-2.98-11.91-7.45h-16.25
			c0.41,12.45,11.1,21.53,28.16,21.53c17.06,0,28.02-8.93,28.02-22.47C388.77,117.94,372.39,116.18,363.45,114.96z"/>
	</g>
	<g>
		<rect x="304.83" y="64.74" class="st1" width="16.11" height="16.11"/>
		<rect x="77.5" y="68.79" class="st1" width="7.07" height="7.07"/>
		<rect x="66.88" y="93.28" class="st1" width="11.81" height="11.81"/>
		<rect x="103.52" y="73.61" class="st1" width="9.63" height="9.63"/>
		<rect x="84.61" y="75.85" class="st1" width="12.29" height="12.29"/>
		<rect x="84.61" y="93.53" class="st1" width="6.17" height="6.17"/>
		<path class="st1" d="M179.76,121.93c0-21.58-15.53-37.4-37.97-37.4c-6.36,0-12.16,1.31-17.25,3.62v-0.02H96.9v16.95H78.68v9.23
			h9.21v9.2h9.22v9.63h7.96c4.48,15.62,18.38,26.18,36.71,26.18c16.83,0,29.78-8.77,35.1-22.29h-18.27
			c-3.6,4.6-9.21,6.76-16.83,6.76c-10.07,0-17.98-5.47-20.28-15.82h58.25V121.93z M103.27,123.51H97.1v-6.17h6.17V123.51z
			 M115.53,106.04h-9.63v-9.63h9.63V106.04z M121.94,114.31C121.94,114.31,121.94,114.31,121.94,114.31
			c0.04-0.12,0.09-0.22,0.13-0.34c0.29-0.94,0.63-1.83,1.01-2.68c0.44-0.93,0.92-1.81,1.46-2.63c3.68-5.64,9.8-8.59,17.25-8.59
			c9.35,0,17.12,4.75,19.85,14.24H121.94z"/>
	</g>
</g>
</svg>
