<?xml version="1.0" encoding="utf-8"?>
<!-- Generator: Adobe Illustrator 28.2.0, SVG Export Plug-In . SVG Version: 6.00 Build 0)  -->
<svg version="1.1" id="Vrstva_1" xmlns="http://www.w3.org/2000/svg" xmlns:xlink="http://www.w3.org/1999/xlink" x="0px" y="0px"
	 viewBox="0 0 566.93 315.83" style="enable-background:new 0 0 566.93 315.83;" xml:space="preserve">
<style type="text/css">
	.st0{fill:#E30613;}
</style>
<g>
	<rect x="398.53" y="121.76" width="16.57" height="72.28"/>
	<path d="M406.88,92.61c-2.97,0-5.51,0.98-7.56,2.92c-2.05,1.96-3.09,4.51-3.09,7.59c0,3.09,1.04,5.64,3.09,7.59
		c2.04,1.95,4.58,2.93,7.56,2.93c3.07,0,5.64-0.99,7.63-2.94c2-1.95,3.02-4.5,3.02-7.58c0-3.07-1.02-5.62-3.02-7.58
		C412.52,93.6,409.95,92.61,406.88,92.61z"/>
	<path class="st0" d="M379.79,121.48c-3.86,0-7.16,0.74-9.8,2.18c-2.54,1.38-4.44,3.53-5.68,6.38h-0.73v-8.29h-16.29v72.28h16.57
		v-42.35c0-5.12,1.43-8.95,4.25-11.37c2.85-2.45,6.59-3.7,11.1-3.7h9.93v-15.14H379.79z"/>
	<path class="st0" d="M170.68,176.54v-54.78H154.4v10.14h-0.83c-1.87-3.06-4.64-5.84-8.22-8.27c-3.8-2.56-9.29-3.86-16.3-3.86
		c-5.95,0-11.54,1.48-16.6,4.41c-5.07,2.92-9.2,7.2-12.27,12.71c-3.06,5.49-4.62,12.2-4.62,19.95v2.14c0,7.74,1.53,14.45,4.54,19.94
		c3.02,5.5,7.12,9.78,12.21,12.71c5.08,2.92,10.71,4.41,16.74,4.41c7.3,0,13.01-1.4,16.96-4.17c3.74-2.61,6.59-5.77,8.47-9.4h0.64
		v0.07c0,3.5,1.16,6.32,3.45,8.4c2.25,2.06,5.2,3.1,8.77,3.1h13.36v-14.14h-6.93C171.6,179.89,170.68,178.89,170.68,176.54z
		 M154.25,158.55c0,7.32-1.98,13.01-5.87,16.91c-3.89,3.89-9,5.87-15.19,5.87c-6,0-11.05-1.98-14.99-5.87
		c-3.94-3.89-5.94-9.58-5.94-16.9v-1.29c0-7.23,2-12.87,5.94-16.76c3.95-3.9,8.99-5.88,14.99-5.88c6.09,0,11.18,1.98,15.13,5.88
		c3.94,3.9,5.94,9.54,5.94,16.76V158.55z"/>
	<path class="st0" d="M321.24,124.39c-5.21-3.07-11.35-4.62-18.25-4.62c-7.09,0-13.41,1.55-18.81,4.62
		c-5.41,3.07-9.69,7.47-12.71,13.08c-3.01,5.59-4.54,12.2-4.54,19.65v1.71c0,7.37,1.55,13.93,4.61,19.52
		c3.07,5.6,7.39,10,12.86,13.07c5.45,3.07,11.9,4.62,19.17,4.62c6.48,0,11.9-1.04,16.12-3.09c4.2-2.06,7.64-4.64,10.23-7.66
		c2.56-3,4.55-5.9,5.91-8.62l0.41-0.82l-13.81-7.14l-0.41,0.87c-1.46,3.1-3.57,5.88-6.27,8.27c-2.62,2.31-6.62,3.48-11.88,3.48
		c-5.64,0-10.4-1.76-14.15-5.24c-3.54-3.28-5.51-7.71-5.87-13.17h54.08v-6.5c0-7.26-1.48-13.7-4.39-19.15
		C330.59,131.8,326.46,127.47,321.24,124.39z M284.08,149.76c0.85-4.58,2.82-8.23,5.87-10.86c3.29-2.84,7.63-4.28,12.89-4.28
		c5.26,0,9.57,1.44,12.81,4.27c3,2.63,4.79,6.28,5.31,10.86H284.08z"/>
	<path class="st0" d="M241.4,131.9h-0.83c-1.78-2.88-4.49-5.61-8.06-8.11c-3.81-2.67-9.3-4.02-16.32-4.02
		c-6.05,0-11.68,1.48-16.75,4.41c-5.07,2.92-9.19,7.12-12.27,12.48c-3.07,5.36-4.62,11.9-4.62,19.46v2.14
		c0,7.46,1.53,13.98,4.55,19.38c3.02,5.41,7.15,9.61,12.28,12.49c5.11,2.88,10.77,4.33,16.81,4.33c4.76,0,8.79-0.6,11.97-1.77
		c3.19-1.18,5.82-2.74,7.81-4.62c1.78-1.7,3.23-3.39,4.3-5.03h0.84v22.11c0,2.35-0.96,3.36-3.21,3.36h-40.49v14.71h45.06
		c4.62,0,8.33-1.39,11.02-4.13c2.69-2.74,4.05-6.42,4.05-10.93v-86.39H241.4V131.9z M241.25,157.83c0,6.85-2,12.27-5.93,16.11
		c-3.94,3.86-9.03,5.81-15.13,5.81c-6.01,0-11.05-1.96-14.99-5.81c-3.94-3.85-5.93-9.27-5.93-16.11v-1.28
		c0-7.03,1.99-12.5,5.92-16.25c3.95-3.76,9-5.67,15-5.67c6.19,0,11.3,1.91,15.21,5.67c3.89,3.75,5.86,9.23,5.86,16.26V157.83z"/>
	<path d="M452.67,176.4v-40.33l18.65-0.03v-14.28l-18.65,0V98.49H436.1v23.27h-11.91v14.29h11.91v42.92c0,4.52,1.36,8.19,4.05,10.93
		c2.7,2.74,6.35,4.13,10.88,4.13h20.36v-14.28h-15.64C453.59,179.75,452.67,178.75,452.67,176.4z"/>
	<rect x="398.59" y="208.51" width="72.79" height="14.71"/>
</g>
</svg>
